<svg version="1.1" baseProfile="full" width="610.5" height="1668" viewbox="0 0 610.5 1668" xmlns="http://www.w3.org/2000/svg" xmlns:xlink="http://www.w3.org/1999/xlink" xmlns:ev="http://www.w3.org/2001/xml-events" style="font-weight:bold; font-size:12pt; font-family:'Calibri', Helvetica, sans-serif;;stroke-width:3;stroke-linejoin:round;stroke-linecap:round">
  <title >nomnoml</title>
  <desc >[&lt;actor&gt;user]

[seraphId-ui|
   [tools|
     react
     material-ui
   ]
   [scenes|
      Welcome
     CreateWallet
     UnlockWallet
     WalletInfo
   ]
   [reducers|
     wallet
     claim
     session
   ]
   [actions|
     [ProxyStore]
   ]
   [scenes]:-&gt;[actions]
   [actions]:-&gt;[reducers]
   [reducers]:-&gt;[scenes]
]

[web dapp|
  [ui code]
  [seraphId]
  [Injected Dialog]
  
  [&lt;actor&gt;ui developer]
  [ui developer]-&gt;[ui code]
  [ui code]&lt;-&gt;[seraphId]
  [seraphId]&lt;-&gt;[Injected Dialog]
]

[seraphId-background|
  [action/reducers definition]

  [tools|
     redux
     webext-redux
     redux-persist
     thunk
   ]
  [Wrapper Storage|
    [claims]
    [encrypted keys]
    [wallet]
  ]
    [action/reducers definition]&lt;-&gt;[Wrapper Storage]

]

[user]&lt;-&gt;[seraphId-ui]

[user]&lt;:--:&gt;[web dapp]

[seraphId-contentscript|

  [seraphId + dialog Injector]
  [events]
     [reducers|
     wallet
     claim
     session
          dialog

   ]
   [actions|
     [ProxyStore]
   ]
   
    [seraphId + dialog Injector]:-&gt;[events]
   [events]:-&gt;[actions]
   [actions]:-&gt;[reducers]
   [reducers]:-&gt;[seraphId + dialog Injector]
]

[web dapp]&lt;:--:&gt;[seraphId-contentscript]
[seraphId-contentscript]&lt;-&gt;[seraphId-background]
[seraphId-background]&lt;-&gt;[seraphId-ui]
[seraphId-background]
</desc>
  <path d="M147.5 35.2 L20 64.5 L20 235 L20 235 L20 405.5 L20 405.5 L20 642.5 L20 642.5 L20 879.5 L20 879.5 L20 1045.5 L20 1045.5 L20 1211.5 L20 1211.5 L33.3 1231.5 L33.3 1231.5 " style="stroke:#33322E;fill:none;stroke-dasharray:none;"></path>
  <path d="M21.5 1223.4 L29.6 1226 L30.4 1217.4 L33.3 1231.5 Z" style="stroke:#33322E;fill:#33322E;stroke-dasharray:none;"></path>
  <path d="M135.7 43.4 L141 36.7 L133.3 33 L147.5 35.2 Z" style="stroke:#33322E;fill:#33322E;stroke-dasharray:none;"></path>
  <path d="M201.5 35.2 L329 64.5 L329 84.5 L329 84.5 " style="stroke:#33322E;fill:none;stroke-dasharray:6 6;"></path>
  <path d="M323.7 71.2 L329 71.2 L334.3 71.2 L329 84.5 Z" style="stroke:#33322E;fill:#eee8d5;stroke-dasharray:none;"></path>
  <path d="M215.7 33 L214.5 38.2 L213.3 43.4 L201.5 35.2 Z" style="stroke:#33322E;fill:#eee8d5;stroke-dasharray:none;"></path>
  <path d="M329 385.5 L329 405.5 L329 425.5 L329 425.5 " style="stroke:#33322E;fill:none;stroke-dasharray:6 6;"></path>
  <path d="M323.7 412.2 L329 412.2 L334.3 412.2 L329 425.5 Z" style="stroke:#33322E;fill:#eee8d5;stroke-dasharray:none;"></path>
  <path d="M334.3 398.8 L329 398.8 L323.7 398.8 L329 385.5 Z" style="stroke:#33322E;fill:#eee8d5;stroke-dasharray:none;"></path>
  <path d="M329 859.5 L329 879.5 L329 899.5 L329 899.5 " style="stroke:#33322E;fill:none;stroke-dasharray:none;"></path>
  <path d="M323.7 886.2 L329 892.8 L334.3 886.2 L329 899.5 Z" style="stroke:#33322E;fill:#33322E;stroke-dasharray:none;"></path>
  <path d="M334.3 872.8 L329 866.2 L323.7 872.8 L329 859.5 Z" style="stroke:#33322E;fill:#33322E;stroke-dasharray:none;"></path>
  <path d="M329 1191.5 L329 1211.5 L315.7 1231.5 L315.7 1231.5 " style="stroke:#33322E;fill:none;stroke-dasharray:none;"></path>
  <path d="M318.6 1217.4 L319.4 1226 L327.5 1223.4 L315.7 1231.5 Z" style="stroke:#33322E;fill:#33322E;stroke-dasharray:none;"></path>
  <path d="M334.3 1204.8 L329 1198.2 L323.7 1204.8 L329 1191.5 Z" style="stroke:#33322E;fill:#33322E;stroke-dasharray:none;"></path>
  <rect x="13.5" y="1231.5" height="424" width="322" style="stroke:#33322E;fill:#eee8d5;stroke-dasharray:none;"></rect>
  <text x="174.5" y="1253" style="text-anchor: middle;">seraphId-ui</text>
  <path d="M13.5 1262.5 L335.5 1262.5" style="stroke:#33322E;fill:none;stroke-dasharray:none;"></path>
  <path d="M215.5 1382.5 L200.8 1402.5 L200.8 1422.5 L200.8 1422.5 " style="stroke:#33322E;fill:none;stroke-dasharray:none;"></path>
  <path d="M195.4 1409.2 L200.8 1415.8 L206.1 1409.2 L200.8 1422.5 Z" style="stroke:#33322E;fill:#33322E;stroke-dasharray:none;"></path>
  <path d="M200.8 1510.5 L200.8 1530.5 L217.2 1550.5 L217.2 1550.5 " style="stroke:#33322E;fill:none;stroke-dasharray:none;"></path>
  <path d="M204.6 1543.6 L213 1545.3 L212.8 1536.8 L217.2 1550.5 Z" style="stroke:#33322E;fill:#33322E;stroke-dasharray:none;"></path>
  <path d="M292.8 1550.5 L309.3 1530.5 L309.3 1466.5 L309.3 1466.5 L309.3 1402.5 L309.3 1402.5 L294.5 1382.5 L294.5 1382.5 " style="stroke:#33322E;fill:none;stroke-dasharray:none;"></path>
  <path d="M306.7 1390.1 L298.4 1387.9 L298.1 1396.4 L294.5 1382.5 Z" style="stroke:#33322E;fill:#33322E;stroke-dasharray:none;"></path>
  <rect x="26.5" y="1290.5" height="77" width="121" style="stroke:#33322E;fill:#fdf6e3;stroke-dasharray:none;"></rect>
  <text x="87" y="1312" style="text-anchor: middle;">tools</text>
  <path d="M26.5 1321.5 L147.5 1321.5" style="stroke:#33322E;fill:none;stroke-dasharray:none;"></path>
  <text x="34.5" y="1343" style="font-weight:normal;">react</text>
  <text x="34.5" y="1358" style="font-weight:normal;">material-ui</text>
  <rect x="187.5" y="1275.5" height="107" width="135" style="stroke:#33322E;fill:#fdf6e3;stroke-dasharray:none;"></rect>
  <text x="255" y="1297" style="text-anchor: middle;">scenes</text>
  <path d="M187.5 1306.5 L322.5 1306.5" style="stroke:#33322E;fill:none;stroke-dasharray:none;"></path>
  <text x="195.5" y="1328" style="font-weight:normal;">Welcome</text>
  <text x="195.5" y="1343" style="font-weight:normal;">CreateWallet</text>
  <text x="195.5" y="1358" style="font-weight:normal;">UnlockWallet</text>
  <text x="195.5" y="1373" style="font-weight:normal;">WalletInfo</text>
  <rect x="209.5" y="1550.5" height="92" width="92" style="stroke:#33322E;fill:#fdf6e3;stroke-dasharray:none;"></rect>
  <text x="255.5" y="1572" style="text-anchor: middle;">reducers</text>
  <path d="M209.5 1581.5 L301.5 1581.5" style="stroke:#33322E;fill:none;stroke-dasharray:none;"></path>
  <text x="217.5" y="1603" style="font-weight:normal;">wallet</text>
  <text x="217.5" y="1618" style="font-weight:normal;">claim</text>
  <text x="217.5" y="1633" style="font-weight:normal;">session</text>
  <rect x="132.5" y="1422.5" height="88" width="137" style="stroke:#33322E;fill:#fdf6e3;stroke-dasharray:none;"></rect>
  <text x="201" y="1444" style="text-anchor: middle;">actions</text>
  <path d="M132.5 1453.5 L269.5 1453.5" style="stroke:#33322E;fill:none;stroke-dasharray:none;"></path>
  <rect x="145.5" y="1466.5" height="31" width="111" style="stroke:#33322E;fill:#eee8d5;stroke-dasharray:none;"></rect>
  <text x="201" y="1488" style="text-anchor: middle;">ProxyStore</text>
  <rect x="236.5" y="84.5" height="301" width="185" style="stroke:#33322E;fill:#eee8d5;stroke-dasharray:none;"></rect>
  <text x="329" y="106" style="text-anchor: middle;">web dapp</text>
  <path d="M236.5 115.5 L421.5 115.5" style="stroke:#33322E;fill:none;stroke-dasharray:none;"></path>
  <path d="M329 159.5 L329 179.5 L329 199.5 L329 199.5 " style="stroke:#33322E;fill:none;stroke-dasharray:none;"></path>
  <path d="M323.7 186.2 L329 192.8 L334.3 186.2 L329 199.5 Z" style="stroke:#33322E;fill:#33322E;stroke-dasharray:none;"></path>
  <path d="M329 230.5 L329 250.5 L329 270.5 L329 270.5 " style="stroke:#33322E;fill:none;stroke-dasharray:none;"></path>
  <path d="M323.7 257.2 L329 263.8 L334.3 257.2 L329 270.5 Z" style="stroke:#33322E;fill:#33322E;stroke-dasharray:none;"></path>
  <path d="M334.3 243.8 L329 237.2 L323.7 243.8 L329 230.5 Z" style="stroke:#33322E;fill:#33322E;stroke-dasharray:none;"></path>
  <path d="M329 301.5 L329 321.5 L329 341.5 L329 341.5 " style="stroke:#33322E;fill:none;stroke-dasharray:none;"></path>
  <path d="M323.7 328.2 L329 334.8 L334.3 328.2 L329 341.5 Z" style="stroke:#33322E;fill:#33322E;stroke-dasharray:none;"></path>
  <path d="M334.3 314.8 L329 308.2 L323.7 314.8 L329 301.5 Z" style="stroke:#33322E;fill:#33322E;stroke-dasharray:none;"></path>
  <rect x="287.5" y="199.5" height="31" width="83" style="stroke:#33322E;fill:#fdf6e3;stroke-dasharray:none;"></rect>
  <text x="329" y="221" style="text-anchor: middle;">ui code</text>
  <rect x="283.5" y="270.5" height="31" width="92" style="stroke:#33322E;fill:#fdf6e3;stroke-dasharray:none;"></rect>
  <text x="329.5" y="292" style="text-anchor: middle;">seraphId</text>
  <rect x="249.5" y="341.5" height="31" width="159" style="stroke:#33322E;fill:#fdf6e3;stroke-dasharray:none;"></rect>
  <text x="329" y="363" style="text-anchor: middle;">Injected Dialog</text>
  <circle r="4" cx="329" cy="126.5" style="stroke:#33322E;fill:#fdf6e3;stroke-dasharray:none;"></circle>
  <path d="M329 130.5 L329 138.5" style="stroke:#33322E;fill:none;stroke-dasharray:none;"></path>
  <path d="M325 134.5 L333 134.5" style="stroke:#33322E;fill:none;stroke-dasharray:none;"></path>
  <path d="M325 142.5 L329 138.5 L333 142.5" style="stroke:#33322E;fill:none;stroke-dasharray:none;"></path>
  <text x="329.5" y="156" style="font-weight:normal;text-anchor: middle;">ui developer</text>
  <rect x="60.5" y="899.5" height="292" width="538" style="stroke:#33322E;fill:#eee8d5;stroke-dasharray:none;"></rect>
  <text x="329.5" y="921" style="text-anchor: middle;">seraphId-background</text>
  <path d="M60.5 930.5 L598.5 930.5" style="stroke:#33322E;fill:none;stroke-dasharray:none;"></path>
  <path d="M385 1012.5 L385 1070.5 L385 1090.5 L385 1090.5 " style="stroke:#33322E;fill:none;stroke-dasharray:none;"></path>
  <path d="M379.7 1077.2 L385 1083.8 L390.3 1077.2 L385 1090.5 Z" style="stroke:#33322E;fill:#33322E;stroke-dasharray:none;"></path>
  <path d="M390.3 1025.8 L385 1019.2 L379.7 1025.8 L385 1012.5 Z" style="stroke:#33322E;fill:#33322E;stroke-dasharray:none;"></path>
  <rect x="73.5" y="943.5" height="107" width="140" style="stroke:#33322E;fill:#fdf6e3;stroke-dasharray:none;"></rect>
  <text x="143.5" y="965" style="text-anchor: middle;">tools</text>
  <path d="M73.5 974.5 L213.5 974.5" style="stroke:#33322E;fill:none;stroke-dasharray:none;"></path>
  <text x="81.5" y="996" style="font-weight:normal;">redux</text>
  <text x="81.5" y="1011" style="font-weight:normal;">webext-redux</text>
  <text x="81.5" y="1026" style="font-weight:normal;">redux-persist</text>
  <text x="81.5" y="1041" style="font-weight:normal;">thunk</text>
  <rect x="184.5" y="1090.5" height="88" width="401" style="stroke:#33322E;fill:#fdf6e3;stroke-dasharray:none;"></rect>
  <text x="385" y="1112" style="text-anchor: middle;">Wrapper Storage</text>
  <path d="M184.5 1121.5 L585.5 1121.5" style="stroke:#33322E;fill:none;stroke-dasharray:none;"></path>
  <rect x="197.5" y="1134.5" height="31" width="73" style="stroke:#33322E;fill:#eee8d5;stroke-dasharray:none;"></rect>
  <text x="234" y="1156" style="text-anchor: middle;">claims</text>
  <rect x="310.5" y="1134.5" height="31" width="149" style="stroke:#33322E;fill:#eee8d5;stroke-dasharray:none;"></rect>
  <text x="385" y="1156" style="text-anchor: middle;">encrypted keys</text>
  <rect x="499.5" y="1134.5" height="31" width="73" style="stroke:#33322E;fill:#eee8d5;stroke-dasharray:none;"></rect>
  <text x="536" y="1156" style="text-anchor: middle;">wallet</text>
  <rect x="253.5" y="981.5" height="31" width="263" style="stroke:#33322E;fill:#fdf6e3;stroke-dasharray:none;"></rect>
  <text x="385" y="1003" style="text-anchor: middle;">action/reducers definition</text>
  <rect x="173.5" y="425.5" height="434" width="311.75" style="stroke:#33322E;fill:#eee8d5;stroke-dasharray:none;"></rect>
  <text x="329.4" y="447" style="text-anchor: middle;">seraphId-contentscript</text>
  <path d="M173.5 456.5 L485.3 456.5" style="stroke:#33322E;fill:none;stroke-dasharray:none;"></path>
  <path d="M318 647.5 L318 667.5 L318 687.5 L318 687.5 " style="stroke:#33322E;fill:none;stroke-dasharray:none;"></path>
  <path d="M312.7 674.2 L318 680.8 L323.3 674.2 L318 687.5 Z" style="stroke:#33322E;fill:#33322E;stroke-dasharray:none;"></path>
  <path d="M318 718.5 L318 738.5 L344.8 758.5 L344.8 758.5 " style="stroke:#33322E;fill:none;stroke-dasharray:none;"></path>
  <path d="M330.9 754.8 L339.5 754.5 L337.3 746.3 L344.8 758.5 Z" style="stroke:#33322E;fill:#33322E;stroke-dasharray:none;"></path>
  <path d="M462.7 758.5 L489.5 738.5 L489.5 703 L489.5 703 L489.5 667.5 L489.5 667.5 L489.5 632 L489.5 632 L489.5 596.5 L489.5 596.5 L449.8 562.4 L449.8 562.4 " style="stroke:#33322E;fill:none;stroke-dasharray:none;"></path>
  <path d="M463.3 567.1 L454.8 566.8 L456.4 575.2 L449.8 562.4 Z" style="stroke:#33322E;fill:#33322E;stroke-dasharray:none;"></path>
  <path d="M357.8 562.4 L318 596.5 L318 616.5 L318 616.5 " style="stroke:#33322E;fill:none;stroke-dasharray:none;"></path>
  <path d="M312.7 603.2 L318 609.8 L323.3 603.2 L318 616.5 Z" style="stroke:#33322E;fill:#33322E;stroke-dasharray:none;"></path>
  <rect x="357.5" y="469.5" height="107" width="92" style="stroke:#33322E;fill:#fdf6e3;stroke-dasharray:none;"></rect>
  <text x="403.5" y="491" style="text-anchor: middle;">reducers</text>
  <path d="M357.5 500.5 L449.5 500.5" style="stroke:#33322E;fill:none;stroke-dasharray:none;"></path>
  <text x="365.5" y="522" style="font-weight:normal;">wallet</text>
  <text x="365.5" y="537" style="font-weight:normal;">claim</text>
  <text x="365.5" y="552" style="font-weight:normal;">session</text>
  <text x="365.5" y="567" style="font-weight:normal;">dialog</text>
  <rect x="335.5" y="758.5" height="88" width="137" style="stroke:#33322E;fill:#fdf6e3;stroke-dasharray:none;"></rect>
  <text x="404" y="780" style="text-anchor: middle;">actions</text>
  <path d="M335.5 789.5 L472.5 789.5" style="stroke:#33322E;fill:none;stroke-dasharray:none;"></path>
  <rect x="348.5" y="802.5" height="31" width="111" style="stroke:#33322E;fill:#eee8d5;stroke-dasharray:none;"></rect>
  <text x="404" y="824" style="text-anchor: middle;">ProxyStore</text>
  <rect x="186.5" y="616.5" height="31" width="263" style="stroke:#33322E;fill:#fdf6e3;stroke-dasharray:none;"></rect>
  <text x="318" y="638" style="text-anchor: middle;">seraphId + dialog Injector</text>
  <rect x="281.5" y="687.5" height="31" width="73" style="stroke:#33322E;fill:#fdf6e3;stroke-dasharray:none;"></rect>
  <text x="318" y="709" style="text-anchor: middle;">events</text>
  <circle r="4" cx="174.5" cy="11.5" style="stroke:#33322E;fill:#eee8d5;stroke-dasharray:none;"></circle>
  <path d="M174.5 15.5 L174.5 23.5" style="stroke:#33322E;fill:none;stroke-dasharray:none;"></path>
  <path d="M170.5 19.5 L178.5 19.5" style="stroke:#33322E;fill:none;stroke-dasharray:none;"></path>
  <path d="M170.5 27.5 L174.5 23.5 L178.5 27.5" style="stroke:#33322E;fill:none;stroke-dasharray:none;"></path>
  <text x="174.5" y="41" style="font-weight:normal;text-anchor: middle;">user</text>
</svg>