<svg id="Ebene_1" data-name="Ebene 1" xmlns="http://www.w3.org/2000/svg" viewBox="0 0 538.87 319.4"><defs><style>.cls-1{fill:none;}.cls-2{fill:#fff;}</style></defs><title>Seraph_ID_LOGO_x01.02_NO_BACKGROUND</title><polyline class="cls-1" points="215.3 245.5 221.92 231.84 235.99 202.81"/><polyline class="cls-1" points="256.68 245.63 250.02 231.84 243.03 217.37 239.77 210.62"/><path class="cls-2" d="M81.94,227.47c0,8.64-8.14,12.89-19.3,12.89-9.51,0-16.92-3.17-22.25-8.5l1.8-2.08c4.68,4.75,11.81,7.92,20.52,7.92,9.51,0,16.56-3.1,16.56-10.23,0-6.41-2.81-9.58-17.57-11.45-13.53-1.72-19.58-5-19.58-13.17,0-8.5,8.21-12.82,19.37-12.82,8.78,0,15.69,2.88,20.16,6.91l-1.8,1.95c-3.89-3.46-10.59-6.2-18.44-6.2-8.85,0-16.63,3.46-16.63,10.16,0,7,5.62,9.29,18.58,10.94C77.62,215.59,81.94,219.48,81.94,227.47Z"/><path class="cls-2" d="M105.12,216v21.1h32.47v2.66H102.45v-49h33.27v2.66h-30.6v19.88h27.22V216Z"/><path class="cls-2" d="M185.33,216.89l13.17,22.82h-3l-13-22.32H160.63v22.32H158v-49h24.63c9.29,0,15.27,5.18,15.27,12.53v1.8C197.86,211.85,192.53,215.73,185.33,216.89Zm-24.7-2.16h22.54c6-.29,12-3.46,12-9.65v-1.8c0-5.69-5-9.87-12.74-9.87H160.63Z"/><path class="cls-2" d="M238.68,190l23,49.68H258.7l-7.93-17.42h-27l-8.06,17.42h-3L236.16,190Zm11,29.59L237.38,193.7l-12.53,25.92Z"/><path class="cls-2" d="M301.39,190.75c13,0,18.36,5.54,18.36,13.54v2.52c0,8.21-5.33,12.6-18.22,12.6H282.74v20.3h-2.67v-49Zm15.7,13.54c0-6.34-4.4-10.88-15.7-10.88H282.74v23.33h18.65c11.45,0,15.7-3.31,15.7-9.93Z"/><path class="cls-2" d="M377.64,190.75h2.66v49h-2.66V217.46h-40.4v22.25h-2.66v-49h2.66V214.8h40.4Z"/><path class="cls-2" d="M426.38,190.75h6.26v49h-6.26Z"/><path class="cls-2" d="M475.91,190.75c12.32,0,22.47,6.48,22.47,18.72v11.67c0,12.67-10.44,18.57-22.83,18.57H454.89v-49Zm16.2,19.58c0-9.21-7.7-14-16.2-14H461.08v38h14.47c8.72,0,16.56-4.18,16.56-14Z"/><path class="cls-2" d="M234.6,90.44a1.42,1.42,0,0,1-1.35-1.81,33.89,33.89,0,0,1,2.5-6.21,35.2,35.2,0,0,1,3.72-5.72,36.63,36.63,0,0,1,4.75-4.88,35.12,35.12,0,0,1,5.56-3.8,32.94,32.94,0,0,1,6.16-2.64A34.81,34.81,0,0,1,262.62,64l3.91-.21a34.6,34.6,0,0,1,23,8.8,1.4,1.4,0,0,1-.94,2.45,1.37,1.37,0,0,1-.93-.36c-.48-.43-1-.82-1.48-1.22a31.46,31.46,0,0,0-19.69-6.86l-3.41.19a33,33,0,0,0-6.25,1.3,32.06,32.06,0,0,0-5.66,2.43A31,31,0,0,0,246,74a30.07,30.07,0,0,0-4.38,4.49,30.19,30.19,0,0,0-5.06,9.06c-.24.63-.48,1.27-.66,1.9A1.38,1.38,0,0,1,234.6,90.44Z"/><path class="cls-2" d="M299.32,128.86a1.41,1.41,0,0,1-1.19-1.5c.3-4.07.49-8.2.56-12.63,0-3.48,0-6.86-.1-10.06-.07-2.4-.19-4.7-.35-6.84-.13-1.71-.24-2.75-.29-3.09a1.4,1.4,0,0,1,1.25-1.51h.16a1.47,1.47,0,0,1,1.39,1.25c.05.38.15,1.44.28,3.15s.28,4,.37,6.95c.12,3.18.15,6.6.09,10.19-.06,4.17-.25,8.48-.55,12.81a1.42,1.42,0,0,1-1.41,1.29Z"/><path class="cls-2" d="M276.12,145.42l-.28,0a1.42,1.42,0,0,1-1.13-1.59c.31-2,.59-4.31.86-6.95.36-3.61.63-7.3.81-11,.22-4.75.3-9.81.26-15,0-3.22-.11-6.41-.29-9.49-.12-1.94-.25-3.27-.31-3.85l0-.23a9.42,9.42,0,0,0-1.19-3.71,9.66,9.66,0,0,0-5.66-4.52,9.35,9.35,0,0,0-2.71-.4,10.14,10.14,0,0,0-1.1.06,9.44,9.44,0,0,0-3.66,1.18,9.64,9.64,0,0,0-4.51,5.65,9.43,9.43,0,0,0-.33,3.81v.17c.05.51.15,1.63.24,3.31.17,2.57.26,5.75.27,9,0,4.31-.15,8.71-.47,13.08-.25,3.61-.64,7.35-1.16,11.12-.21,1.59-.46,3.18-.72,4.75l0,.14a1.42,1.42,0,0,1-1.34,1.08l-.24,0a1.44,1.44,0,0,1-.93-.57,1.39,1.39,0,0,1-.24-1c.22-1.37.44-2.74.63-4.11.52-3.66.94-7.55,1.23-11.54s.45-8.33.45-12.9c0-3-.09-6-.25-8.78-.11-1.91-.23-3.06-.26-3.33a12.4,12.4,0,0,1,.44-5,12.53,12.53,0,0,1,2.21-4.23,12.29,12.29,0,0,1,3.64-3.07,12.58,12.58,0,0,1,4.71-1.51,12.81,12.81,0,0,1,1.39-.08,12.4,12.4,0,0,1,7.75,2.72,12.69,12.69,0,0,1,3.11,3.66,12.06,12.06,0,0,1,1.48,4.68c0,.09.2,1.58.35,4.27.13,2,.29,5.29.32,9.69,0,5.52-.07,10.48-.27,15.14-.18,3.67-.44,7.28-.77,10.72-.22,2.14-.53,4.93-.93,7.49A1.4,1.4,0,0,1,276.12,145.42Z"/><path class="cls-2" d="M274.38,159.7a25,25,0,0,1-2.51-.14c-5.8-1.12-7.88-5.91-8.58-9.73a25,25,0,0,1-.17-7.63v-.11a.62.62,0,0,1,0-.13h0c.18-1.39.39-3.28.62-5.46.3-2.74.62-5.92.9-9.2.64-7.07,1-12.63,1-16.07,0-4.15-.17-7.4-.3-9.4-.11-1.66-.21-2.75-.25-3.18l0-.38a1.39,1.39,0,0,1,1.25-1.39h0a1.45,1.45,0,0,1,1.54,1.24s.13,1.28.28,3.53c.19,3.17.29,6.3.31,9.55,0,4.62-.15,9.36-.48,14.12-.26,3.6-.65,7.31-1.13,11-.25,2-.55,4-.9,6.1l0,.12v.13h0s0,0,0,.06a23,23,0,0,0,.17,6.58c.79,4.28,2.88,6.8,6.22,7.46a17.72,17.72,0,0,0,2.14.14c4.54,0,6.59-2,7.74-3.48,2.22-2.89,3.47-7.64,3.9-14.88l0-.4.07-1.21c.15-1.3.3-2.61.42-3.88s.26-2.63.37-3.93c.22-2.62.39-5.26.52-7.85.18-4.06.24-8.21.18-12.71,0-2.92-.15-5.79-.34-8.76-.14-2.11-.27-3.44-.32-3.81a20.85,20.85,0,0,0-2.21-7.3A20.53,20.53,0,0,0,274,79a19.61,19.61,0,0,0-5.11-1.25,22.39,22.39,0,0,0-2.4-.15l-2.21.12a21.74,21.74,0,0,0-4.07.84,21.33,21.33,0,0,0-3.7,1.58,21.56,21.56,0,0,0-2.92,2l-.36.26a20.87,20.87,0,0,0-2.9,3A22.61,22.61,0,0,0,248,88.78a21.06,21.06,0,0,0-1.48,3.75,20.42,20.42,0,0,0-.74,3.94,20.9,20.9,0,0,0,.05,4,2.53,2.53,0,0,0,0,.38c0,.48.11,1.4.18,2.63.1,1.63.21,4.27.23,7.63,0,3.88-.11,7.55-.34,11.2-.27,4.46-.73,8.94-1.36,13.31a2,2,0,0,0,0,.33,1.46,1.46,0,0,1-1.42,1.21H243a1.37,1.37,0,0,1-.91-.55,1.43,1.43,0,0,1-.26-1c.65-4.47,1.11-9,1.37-13.43.23-3.48.33-7,.33-11,0-3.49-.13-6-.22-7.5-.06-1.3-.15-2.47-.2-2.82a24.58,24.58,0,0,1,0-4.62,24,24,0,0,1,.84-4.48,23.4,23.4,0,0,1,1.7-4.25,2.19,2.19,0,0,1,.11-.19c.08-.13.16-.26.23-.39a23,23,0,0,1,5.42-6.61,23.33,23.33,0,0,1,8-4.4,23.05,23.05,0,0,1,4.53-1l1.37-.12,1.27,0A23.45,23.45,0,0,1,275,76.39a24.05,24.05,0,0,1,2.91,1.39,23.59,23.59,0,0,1,4.23,3,23.1,23.1,0,0,1,5.16,6.63,23.73,23.73,0,0,1,2.52,8.29l0,.33c.06.61.18,1.85.3,3.6.19,3,.3,5.92.35,8.91.06,4.46,0,8.67-.21,12.85-.25,5.3-.69,10.63-1.32,15.87-.35,8.52-1.84,14.32-4.56,17.87C282,158.21,278.75,159.7,274.38,159.7Z"/><path class="cls-2" d="M232.63,124.14a1.4,1.4,0,0,1-1.31-1.44l.64-20.33a1.44,1.44,0,0,1,1.46-1.36,1.4,1.4,0,0,1,1.34,1.44l-.64,20.33a1.38,1.38,0,0,1-1.39,1.36Z"/></svg>